<?xml version="1.0" encoding="UTF-8"?>
<svg xmlns="http://www.w3.org/2000/svg" xmlns:xlink="http://www.w3.org/1999/xlink" width="375pt" height="374.999991pt" viewBox="0 0 375 374.999991" version="1.2">
<defs>
<clipPath id="clip1">
  <path d="M 80.769531 158 L 309.519531 158 L 309.519531 318.289062 L 80.769531 318.289062 Z M 80.769531 158 "/>
</clipPath>
<clipPath id="clip2">
  <path d="M 137 25.039062 L 147 25.039062 L 147 41 L 137 41 Z M 137 25.039062 "/>
</clipPath>
<clipPath id="clip3">
  <path d="M 169 25.039062 L 179 25.039062 L 179 41 L 169 41 Z M 169 25.039062 "/>
</clipPath>
<clipPath id="clip4">
  <path d="M 201 25.039062 L 212 25.039062 L 212 41 L 201 41 Z M 201 25.039062 "/>
</clipPath>
</defs>
<g id="surface1">
<g clip-path="url(#clip1)" clip-rule="nonzero">
<path style=" stroke:none;fill-rule:nonzero;fill:rgb(0%,0%,0%);fill-opacity:1;" d="M 287.25 182.121094 L 261.070312 182.121094 L 261.070312 158.03125 L 80.769531 158.03125 L 80.769531 289.292969 C 80.769531 305.199219 93.730469 318.140625 109.667969 318.140625 L 232.167969 318.140625 C 244.632812 318.140625 255.28125 310.21875 259.324219 299.160156 L 287.25 299.160156 C 299.53125 299.160156 309.519531 289.191406 309.519531 276.933594 L 309.519531 204.34375 C 309.519531 192.089844 299.527344 182.121094 287.25 182.121094 Z M 255.476562 182.121094 L 255.476562 289.296875 C 255.476562 302.121094 245.019531 312.558594 232.167969 312.558594 L 109.667969 312.558594 C 96.816406 312.558594 86.359375 302.121094 86.359375 289.296875 L 86.359375 163.617188 L 255.476562 163.617188 Z M 261.070312 207.957031 L 277.632812 207.957031 C 282.925781 207.957031 287.230469 212.253906 287.230469 217.539062 L 287.234375 263.746094 C 287.230469 269.027344 282.925781 273.328125 277.632812 273.328125 L 261.070312 273.328125 Z M 303.925781 276.933594 C 303.925781 286.109375 296.445312 293.578125 287.25 293.578125 L 261.070312 293.578125 L 261.070312 278.910156 L 277.632812 278.910156 C 286.007812 278.910156 292.824219 272.105469 292.824219 263.746094 L 292.824219 217.539062 C 292.824219 209.175781 286.007812 202.375 277.632812 202.375 L 261.070312 202.375 L 261.070312 187.703125 L 287.25 187.703125 C 296.445312 187.703125 303.925781 195.167969 303.925781 204.347656 Z M 303.925781 276.933594 "/>
</g>
<path style=" stroke:none;fill-rule:nonzero;fill:rgb(0%,0%,0%);fill-opacity:1;" d="M 134.445312 44.394531 C 132.933594 44.085938 131.457031 45.0625 131.148438 46.570312 C 130.925781 47.667969 130.8125 48.835938 130.8125 50.046875 C 130.8125 53.617188 131.738281 56.578125 133.722656 59.363281 C 134.265625 60.128906 135.128906 60.539062 136.003906 60.539062 C 136.5625 60.539062 137.128906 60.371094 137.621094 60.023438 C 138.878906 59.128906 139.175781 57.386719 138.28125 56.132812 C 136.984375 54.308594 136.40625 52.433594 136.40625 50.046875 C 136.40625 49.207031 136.480469 48.414062 136.628906 47.683594 C 136.9375 46.171875 135.960938 44.699219 134.445312 44.394531 Z M 134.445312 44.394531 "/>
<path style=" stroke:none;fill-rule:nonzero;fill:rgb(0%,0%,0%);fill-opacity:1;" d="M 133.335938 137.507812 C 133.566406 137.566406 133.800781 137.59375 134.027344 137.59375 C 135.277344 137.59375 136.414062 136.753906 136.738281 135.492188 C 137.402344 132.886719 139.03125 131.1875 140.917969 129.21875 C 141.417969 128.695312 141.921875 128.167969 142.410156 127.625 C 143.4375 126.476562 143.339844 124.710938 142.191406 123.683594 C 141.039062 122.65625 139.269531 122.753906 138.242188 123.902344 C 137.796875 124.398438 137.335938 124.878906 136.875 125.359375 C 134.75 127.574219 132.34375 130.085938 131.316406 134.109375 C 130.933594 135.605469 131.839844 137.125 133.335938 137.507812 Z M 133.335938 137.507812 "/>
<path style=" stroke:none;fill-rule:nonzero;fill:rgb(0%,0%,0%);fill-opacity:1;" d="M 145.503906 65.214844 C 144.839844 63.824219 143.171875 63.226562 141.773438 63.894531 C 140.378906 64.554688 139.785156 66.21875 140.449219 67.613281 C 141.078125 68.929688 141.382812 70.40625 141.382812 72.113281 C 141.382812 73.648438 141.140625 74.980469 140.640625 76.1875 C 140.050781 77.613281 140.730469 79.246094 142.15625 79.835938 C 142.507812 79.980469 142.867188 80.050781 143.226562 80.050781 C 144.320312 80.050781 145.363281 79.398438 145.808594 78.324219 C 146.59375 76.425781 146.976562 74.394531 146.976562 72.113281 C 146.976562 69.554688 146.496094 67.300781 145.503906 65.214844 Z M 145.503906 65.214844 "/>
<path style=" stroke:none;fill-rule:nonzero;fill:rgb(0%,0%,0%);fill-opacity:1;" d="M 144.273438 118.429688 C 145.816406 118.371094 147.023438 117.078125 146.964844 115.535156 C 146.757812 109.902344 144.160156 106.707031 141.519531 103.921875 C 140.457031 102.800781 138.6875 102.75 137.566406 103.8125 C 136.445312 104.871094 136.394531 106.636719 137.457031 107.757812 C 139.589844 110.011719 141.238281 112.035156 141.375 115.742188 C 141.429688 117.246094 142.671875 118.429688 144.167969 118.429688 C 144.203125 118.429688 144.238281 118.429688 144.273438 118.429688 Z M 144.273438 118.429688 "/>
<g clip-path="url(#clip2)" clip-rule="nonzero">
<path style=" stroke:none;fill-rule:nonzero;fill:rgb(0%,0%,0%);fill-opacity:1;" d="M 144.179688 25.191406 C 142.636719 25.191406 141.382812 26.441406 141.382812 27.980469 C 141.382812 31.921875 139.785156 33.964844 137.855469 36.050781 C 136.808594 37.179688 136.878906 38.945312 138.011719 39.996094 C 138.546875 40.492188 139.230469 40.734375 139.910156 40.734375 C 140.660156 40.734375 141.410156 40.433594 141.964844 39.839844 C 144.566406 37.03125 146.980469 33.648438 146.980469 27.980469 C 146.976562 26.441406 145.726562 25.191406 144.179688 25.191406 Z M 144.179688 25.191406 "/>
</g>
<path style=" stroke:none;fill-rule:nonzero;fill:rgb(0%,0%,0%);fill-opacity:1;" d="M 131.015625 96.925781 C 131.230469 98.304688 132.421875 99.289062 133.777344 99.289062 C 133.917969 99.289062 134.0625 99.28125 134.207031 99.257812 C 135.734375 99.023438 136.78125 97.59375 136.542969 96.070312 C 136.453125 95.480469 136.40625 94.847656 136.40625 94.183594 C 136.40625 90.957031 137.507812 89.085938 138.582031 87.6875 C 139.523438 86.464844 139.292969 84.714844 138.066406 83.773438 C 136.84375 82.835938 135.085938 83.0625 134.144531 84.289062 C 131.871094 87.25 130.8125 90.394531 130.8125 94.183594 C 130.8125 95.132812 130.882812 96.054688 131.015625 96.925781 Z M 131.015625 96.925781 "/>
<path style=" stroke:none;fill-rule:nonzero;fill:rgb(0%,0%,0%);fill-opacity:1;" d="M 177.523438 65.214844 C 176.863281 63.824219 175.195312 63.226562 173.796875 63.894531 C 172.402344 64.554688 171.808594 66.21875 172.472656 67.613281 C 173.101562 68.929688 173.40625 70.40625 173.40625 72.113281 C 173.40625 73.648438 173.164062 74.980469 172.664062 76.1875 C 172.074219 77.613281 172.75 79.246094 174.179688 79.835938 C 174.527344 79.980469 174.890625 80.050781 175.246094 80.050781 C 176.34375 80.050781 177.386719 79.398438 177.832031 78.324219 C 178.617188 76.425781 179 74.394531 179 72.113281 C 179 69.554688 178.515625 67.300781 177.523438 65.214844 Z M 177.523438 65.214844 "/>
<path style=" stroke:none;fill-rule:nonzero;fill:rgb(0%,0%,0%);fill-opacity:1;" d="M 176.296875 118.429688 C 177.839844 118.371094 179.042969 117.078125 178.988281 115.535156 C 178.777344 109.902344 176.183594 106.707031 173.542969 103.921875 C 172.480469 102.800781 170.710938 102.75 169.589844 103.8125 C 168.464844 104.871094 168.417969 106.636719 169.476562 107.757812 C 171.613281 110.011719 173.261719 112.035156 173.398438 115.742188 C 173.453125 117.246094 174.695312 118.429688 176.191406 118.429688 C 176.226562 118.429688 176.261719 118.429688 176.296875 118.429688 Z M 176.296875 118.429688 "/>
<g clip-path="url(#clip3)" clip-rule="nonzero">
<path style=" stroke:none;fill-rule:nonzero;fill:rgb(0%,0%,0%);fill-opacity:1;" d="M 171.929688 40.738281 C 172.683594 40.738281 173.433594 40.433594 173.984375 39.84375 C 176.589844 37.03125 179 33.652344 179 27.980469 C 179 26.441406 177.75 25.191406 176.203125 25.191406 C 174.660156 25.191406 173.40625 26.441406 173.40625 27.980469 C 173.40625 31.925781 171.808594 33.96875 169.878906 36.050781 C 168.832031 37.179688 168.898438 38.949219 170.035156 39.996094 C 170.570312 40.492188 171.25 40.738281 171.929688 40.738281 Z M 171.929688 40.738281 "/>
</g>
<path style=" stroke:none;fill-rule:nonzero;fill:rgb(0%,0%,0%);fill-opacity:1;" d="M 170.261719 123.902344 C 169.816406 124.398438 169.355469 124.878906 168.894531 125.355469 C 166.773438 127.574219 164.367188 130.085938 163.339844 134.109375 C 162.957031 135.601562 163.859375 137.125 165.355469 137.503906 C 165.589844 137.5625 165.820312 137.589844 166.050781 137.589844 C 167.296875 137.589844 168.4375 136.753906 168.757812 135.488281 C 169.421875 132.882812 171.050781 131.183594 172.9375 129.214844 C 173.441406 128.691406 173.945312 128.164062 174.429688 127.621094 C 175.460938 126.472656 175.363281 124.707031 174.210938 123.679688 C 173.058594 122.652344 171.292969 122.75 170.261719 123.902344 Z M 170.261719 123.902344 "/>
<path style=" stroke:none;fill-rule:nonzero;fill:rgb(0%,0%,0%);fill-opacity:1;" d="M 168.027344 60.539062 C 168.585938 60.539062 169.152344 60.371094 169.644531 60.023438 C 170.902344 59.128906 171.199219 57.386719 170.304688 56.132812 C 169.007812 54.308594 168.429688 52.433594 168.429688 50.046875 C 168.429688 49.207031 168.503906 48.414062 168.652344 47.683594 C 168.957031 46.171875 167.980469 44.699219 166.464844 44.390625 C 164.953125 44.085938 163.476562 45.058594 163.167969 46.570312 C 162.945312 47.667969 162.832031 48.835938 162.835938 50.046875 C 162.835938 53.617188 163.757812 56.578125 165.742188 59.363281 C 166.289062 60.132812 167.152344 60.539062 168.027344 60.539062 Z M 168.027344 60.539062 "/>
<path style=" stroke:none;fill-rule:nonzero;fill:rgb(0%,0%,0%);fill-opacity:1;" d="M 165.800781 99.289062 C 165.941406 99.289062 166.085938 99.28125 166.230469 99.257812 C 167.757812 99.023438 168.804688 97.59375 168.566406 96.070312 C 168.476562 95.480469 168.429688 94.847656 168.429688 94.183594 C 168.429688 90.957031 169.527344 89.085938 170.605469 87.6875 C 171.546875 86.464844 171.316406 84.714844 170.089844 83.773438 C 168.867188 82.835938 167.109375 83.0625 166.167969 84.289062 C 163.894531 87.25 162.832031 90.394531 162.832031 94.183594 C 162.832031 95.132812 162.902344 96.054688 163.039062 96.929688 C 163.253906 98.304688 164.445312 99.289062 165.800781 99.289062 Z M 165.800781 99.289062 "/>
<path style=" stroke:none;fill-rule:nonzero;fill:rgb(0%,0%,0%);fill-opacity:1;" d="M 197.378906 137.507812 C 197.609375 137.566406 197.84375 137.59375 198.070312 137.59375 C 199.320312 137.59375 200.457031 136.753906 200.78125 135.492188 C 201.445312 132.886719 203.074219 131.1875 204.960938 129.21875 C 205.464844 128.695312 205.964844 128.167969 206.453125 127.625 C 207.480469 126.476562 207.382812 124.710938 206.234375 123.683594 C 205.082031 122.65625 203.316406 122.753906 202.285156 123.902344 C 201.839844 124.398438 201.378906 124.878906 200.917969 125.359375 C 198.796875 127.574219 196.390625 130.085938 195.359375 134.109375 C 194.980469 135.605469 195.882812 137.125 197.378906 137.507812 Z M 197.378906 137.507812 "/>
<path style=" stroke:none;fill-rule:nonzero;fill:rgb(0%,0%,0%);fill-opacity:1;" d="M 198.492188 44.394531 C 196.976562 44.085938 195.5 45.0625 195.191406 46.570312 C 194.96875 47.667969 194.859375 48.835938 194.859375 50.046875 C 194.859375 53.617188 195.78125 56.578125 197.765625 59.363281 C 198.3125 60.128906 199.175781 60.539062 200.046875 60.539062 C 200.609375 60.539062 201.175781 60.371094 201.664062 60.023438 C 202.925781 59.128906 203.21875 57.386719 202.324219 56.132812 C 201.027344 54.308594 200.449219 52.433594 200.449219 50.046875 C 200.449219 49.207031 200.523438 48.414062 200.671875 47.683594 C 200.980469 46.171875 200.003906 44.699219 198.492188 44.394531 Z M 198.492188 44.394531 "/>
<path style=" stroke:none;fill-rule:nonzero;fill:rgb(0%,0%,0%);fill-opacity:1;" d="M 195.0625 96.925781 C 195.277344 98.304688 196.464844 99.289062 197.820312 99.289062 C 197.964844 99.289062 198.109375 99.28125 198.253906 99.257812 C 199.78125 99.023438 200.824219 97.59375 200.589844 96.070312 C 200.496094 95.480469 200.449219 94.847656 200.449219 94.183594 C 200.449219 90.957031 201.550781 89.085938 202.628906 87.6875 C 203.570312 86.464844 203.339844 84.714844 202.113281 83.773438 C 200.890625 82.835938 199.132812 83.0625 198.191406 84.289062 C 195.917969 87.25 194.855469 90.394531 194.855469 94.183594 C 194.859375 95.132812 194.925781 96.054688 195.0625 96.925781 Z M 195.0625 96.925781 "/>
<path style=" stroke:none;fill-rule:nonzero;fill:rgb(0%,0%,0%);fill-opacity:1;" d="M 208.316406 118.429688 C 209.863281 118.371094 211.066406 117.078125 211.007812 115.535156 C 210.800781 109.902344 208.203125 106.707031 205.566406 103.921875 C 204.503906 102.800781 202.730469 102.75 201.609375 103.8125 C 200.488281 104.871094 200.441406 106.636719 201.5 107.757812 C 203.636719 110.011719 205.28125 112.035156 205.417969 115.742188 C 205.476562 117.246094 206.714844 118.429688 208.210938 118.429688 C 208.25 118.429688 208.285156 118.429688 208.316406 118.429688 Z M 208.316406 118.429688 "/>
<g clip-path="url(#clip4)" clip-rule="nonzero">
<path style=" stroke:none;fill-rule:nonzero;fill:rgb(0%,0%,0%);fill-opacity:1;" d="M 208.226562 25.191406 C 206.679688 25.191406 205.429688 26.441406 205.429688 27.980469 C 205.429688 31.921875 203.832031 33.964844 201.902344 36.050781 C 200.851562 37.179688 200.921875 38.945312 202.054688 39.996094 C 202.59375 40.492188 203.273438 40.734375 203.953125 40.734375 C 204.707031 40.734375 205.453125 40.433594 206.007812 39.839844 C 208.613281 37.03125 211.023438 33.648438 211.023438 27.980469 C 211.023438 26.441406 209.769531 25.191406 208.226562 25.191406 Z M 208.226562 25.191406 "/>
</g>
<path style=" stroke:none;fill-rule:nonzero;fill:rgb(0%,0%,0%);fill-opacity:1;" d="M 209.546875 65.214844 C 208.882812 63.824219 207.214844 63.226562 205.820312 63.894531 C 204.425781 64.554688 203.832031 66.21875 204.496094 67.613281 C 205.125 68.929688 205.429688 70.40625 205.429688 72.113281 C 205.429688 73.648438 205.1875 74.980469 204.6875 76.1875 C 204.09375 77.613281 204.773438 79.246094 206.199219 79.835938 C 206.550781 79.980469 206.914062 80.050781 207.269531 80.050781 C 208.367188 80.050781 209.410156 79.398438 209.855469 78.324219 C 210.640625 76.425781 211.023438 74.394531 211.023438 72.113281 C 211.023438 69.554688 210.539062 67.300781 209.546875 65.214844 Z M 209.546875 65.214844 "/>
<path style=" stroke:none;fill-rule:nonzero;fill:rgb(0%,0%,0%);fill-opacity:1;" d="M 123.429688 299.164062 C 123.777344 299.164062 124.125 299.15625 124.480469 299.144531 C 126.023438 299.085938 127.226562 297.789062 127.171875 296.25 C 127.113281 294.710938 125.816406 293.53125 124.273438 293.5625 C 119.597656 293.742188 116.0625 292.527344 113.457031 289.859375 C 108.050781 284.339844 108.589844 274.382812 108.59375 274.289062 C 108.597656 274.230469 108.601562 274.167969 108.601562 274.109375 L 108.601562 184.914062 C 108.601562 183.375 107.347656 182.121094 105.804688 182.121094 C 104.257812 182.121094 103.007812 183.375 103.007812 184.914062 L 103.007812 274.03125 C 102.941406 275.308594 102.554688 286.683594 109.429688 293.738281 C 112.941406 297.339844 117.648438 299.164062 123.429688 299.164062 Z M 123.429688 299.164062 "/>
<path style=" stroke:none;fill-rule:nonzero;fill:rgb(0%,0%,0%);fill-opacity:1;" d="M 138.894531 296.371094 C 138.894531 296.761719 138.820312 297.136719 138.671875 297.496094 C 138.519531 297.855469 138.308594 298.175781 138.03125 298.449219 C 137.753906 298.726562 137.4375 298.941406 137.074219 299.089844 C 136.714844 299.238281 136.335938 299.3125 135.945312 299.3125 C 135.554688 299.3125 135.179688 299.238281 134.820312 299.089844 C 134.457031 298.941406 134.136719 298.726562 133.863281 298.449219 C 133.585938 298.175781 133.371094 297.855469 133.222656 297.496094 C 133.074219 297.136719 133 296.761719 133 296.371094 C 133 295.980469 133.074219 295.605469 133.222656 295.242188 C 133.371094 294.882812 133.585938 294.566406 133.863281 294.289062 C 134.136719 294.011719 134.457031 293.800781 134.820312 293.652344 C 135.179688 293.5 135.554688 293.425781 135.945312 293.425781 C 136.335938 293.425781 136.714844 293.5 137.074219 293.652344 C 137.4375 293.800781 137.753906 294.011719 138.03125 294.289062 C 138.308594 294.566406 138.519531 294.882812 138.671875 295.242188 C 138.820312 295.605469 138.894531 295.980469 138.894531 296.371094 Z M 138.894531 296.371094 "/>
</g>
</svg>
